# xmcd CD database file
#
# Track frame offsets:
#	150
#	5589
#	14216
#	26543
#	42572
#	50449
#	55338
#	65557
#	72413
#	81777
#	89951
#	104379
#	117543
#	123028
#	132170
#
# Disc length: 1892 seconds
#
# Revision: 0
# Processed by: cddbd v1.5.2PL0 Copyright (c) Steve Scherf et al.
# Submitted via: CDex 1.70beta2
#
DISCID=dd07620f
DTITLE=Serpentina - Planeando en tu azotea
DYEAR=1900
DGENRE=Jazz
TTITLE0=Festival
TTITLE1=Descalzos por el parque
TTITLE2=Dos o tres meses
TTITLE3=El universo
TTITLE4=Cambio de vida
TTITLE5=Que desilusion
TTITLE6=Querido meido
TTITLE7=No se por que
TTITLE8=Tan facil
TTITLE9=Yo que hago aqui
TTITLE10=Manana
TTITLE11=Ven, sientate
TTITLE12=Festival(Acoustin Version)
TTITLE13=Fiesta
TTITLE14=Tell me when
EXTD=
EXTT0=
EXTT1=
EXTT2=
EXTT3=
EXTT4=
EXTT5=
EXTT6=
EXTT7=
EXTT8=
EXTT9=
EXTT10=
EXTT11=
EXTT12=
EXTT13=
EXTT14=
PLAYORDER=
